/* XPM */
static char * baby_gryff_xpm[] = {
"50 50 707 2",
"  	c #8BC534",
". 	c #95C849",
"+ 	c #8BBE43",
"@ 	c #91C53C",
"# 	c #92CA3C",
"$ 	c #92CB43",
"% 	c #8DCA43",
"& 	c #8CCA3C",
"* 	c #8CC53C",
"= 	c #91CA41",
"- 	c #92C541",
"; 	c #8CC543",
"> 	c #84BD3C",
", 	c #84C343",
"' 	c #93CB4B",
") 	c #93CD42",
"! 	c #8CC54A",
"~ 	c #93CB34",
"{ 	c #8DC949",
"] 	c #9ACD4B",
"^ 	c #8DCA4A",
"/ 	c #85C43C",
"( 	c #96CB59",
"_ 	c #94D13E",
": 	c #85C335",
"< 	c #73AC3C",
"[ 	c #94D143",
"} 	c #94CB53",
"| 	c #83BC34",
"1 	c #73B443",
"2 	c #74BB4A",
"3 	c #629E34",
"4 	c #8CC935",
"5 	c #93C54B",
"6 	c #99CB44",
"7 	c #95D14A",
"8 	c #91CD45",
"9 	c #9BC64E",
"0 	c #6DB13C",
"a 	c #5B9C42",
"b 	c #63A23B",
"c 	c #8BBD3C",
"d 	c #7BB33C",
"e 	c #73BA3E",
"f 	c #549636",
"g 	c #85C943",
"h 	c #73B43B",
"i 	c #7DBB44",
"j 	c #65A534",
"k 	c #83BD43",
"l 	c #7BB543",
"m 	c #9BD24B",
"n 	c #6DAD3C",
"o 	c #64A32F",
"p 	c #8BBE34",
"q 	c #73B349",
"r 	c #84C34A",
"s 	c #6CAC44",
"t 	c #A2CC52",
"u 	c #ABDB6B",
"v 	c #73AD35",
"w 	c #56962B",
"x 	c #73B234",
"y 	c #63A543",
"z 	c #9CD354",
"A 	c #91CB2B",
"B 	c #CDF28D",
"C 	c #A5D36A",
"D 	c #ABD563",
"E 	c #C4EC8C",
"F 	c #A8D85D",
"G 	c #4D9432",
"H 	c #7CBB3D",
"I 	c #6FB244",
"J 	c #84BD4B",
"K 	c #93BC4B",
"L 	c #ACCE6E",
"M 	c #9CCB5B",
"N 	c #88C829",
"O 	c #92C544",
"P 	c #92BD52",
"Q 	c #CEEC92",
"R 	c #ABD373",
"S 	c #99C53A",
"T 	c #8BBC4A",
"U 	c #5D9741",
"V 	c #5EA344",
"W 	c #539B35",
"X 	c #74BA44",
"Y 	c #85C026",
"Z 	c #53A53C",
"` 	c #539643",
" .	c #91C434",
"..	c #559B41",
"+.	c #6AA33C",
"@.	c #9AC453",
"#.	c #B4DC73",
"$.	c #6BB234",
"%.	c #92C453",
"&.	c #ADDB72",
"*.	c #8FD751",
"=.	c #6CAB34",
"-.	c #ABD46C",
";.	c #BCE481",
">.	c #8CC52D",
",.	c #AADA64",
"'.	c #CCF694",
").	c #A9D25D",
"!.	c #C2EC85",
"~.	c #5DA335",
"{.	c #85CA3C",
"].	c #7BB649",
"^.	c #A6D261",
"/.	c #8EBE50",
"(.	c #6AA543",
"_.	c #84CB4B",
":.	c #9BC545",
"<.	c #5A9535",
"[.	c #7CBD54",
"}.	c #5C9D3D",
"|.	c #7CC33C",
"1.	c #71AD42",
"2.	c #5D9C34",
"3.	c #87B53E",
"4.	c #77A23A",
"5.	c #7AAB2C",
"6.	c #65AA3B",
"7.	c #72A92A",
"8.	c #52A035",
"9.	c #66AC35",
"0.	c #4C9B37",
"a.	c #80BD41",
"b.	c #77A736",
"c.	c #81AA3C",
"d.	c #84A44A",
"e.	c #5E4F42",
"f.	c #7F865A",
"g.	c #7BAB33",
"h.	c #B5CD6B",
"i.	c #D7E597",
"j.	c #83B344",
"k.	c #80B735",
"l.	c #352511",
"m.	c #79715A",
"n.	c #85B83C",
"o.	c #8CC943",
"p.	c #94BD45",
"q.	c #CBEAA4",
"r.	c #86A447",
"s.	c #8D7C6E",
"t.	c #B7A492",
"u.	c #71744B",
"v.	c #86B343",
"w.	c #7FB32E",
"x.	c #78AA2E",
"y.	c #D3EB93",
"z.	c #B3D56D",
"A.	c #80B33C",
"B.	c #4C402F",
"C.	c #EEE5BE",
"D.	c #7A715B",
"E.	c #80B43E",
"F.	c #86B843",
"G.	c #80B342",
"H.	c #79B13C",
"I.	c #77953F",
"J.	c #958374",
"K.	c #C5B09D",
"L.	c #BCA997",
"M.	c #321D05",
"N.	c #3F2815",
"O.	c #8AC634",
"P.	c #88C850",
"Q.	c #86D13B",
"R.	c #B5D675",
"S.	c #D4EC8D",
"T.	c #8CC552",
"U.	c #9CCB53",
"V.	c #4B402E",
"W.	c #2E1A01",
"X.	c #918071",
"Y.	c #AF9A88",
"Z.	c #937C6B",
"`.	c #3E2814",
" +	c #684935",
".+	c #81B43C",
"++	c #A2C65B",
"@+	c #83CB36",
"#+	c #7CBA49",
"$+	c #67AB42",
"%+	c #9ACA3D",
"&+	c #6D8D31",
"*+	c #658328",
"=+	c #88B541",
"-+	c #E9E0BA",
";+	c #895A46",
">+	c #96634E",
",+	c #684331",
"'+	c #CFBAA7",
")+	c #80B335",
"!+	c #A4C567",
"~+	c #67B42E",
"{+	c #84C52E",
"]+	c #A0D046",
"^+	c #7FC94B",
"/+	c #51992D",
"(+	c #4E771F",
"_+	c #A39181",
":+	c #A79585",
"<+	c #755B46",
"[+	c #8E5E4A",
"}+	c #2E1A00",
"|+	c #2D1900",
"1+	c #5F3C2B",
"2+	c #513321",
"3+	c #729D2E",
"4+	c #5BA23D",
"5+	c #A3CB62",
"6+	c #B9DA71",
"7+	c #7CB537",
"8+	c #465717",
"9+	c #6FAD38",
"0+	c #718C44",
"a+	c #C1AD9B",
"b+	c #B09D8C",
"c+	c #413322",
"d+	c #6D644F",
"e+	c #E1D7B2",
"f+	c #907A62",
"g+	c #8F5F4A",
"h+	c #64402F",
"i+	c #8C5C48",
"j+	c #8F5E4A",
"k+	c #8E5E49",
"l+	c #6A5830",
"m+	c #6EA03B",
"n+	c #CCE48D",
"o+	c #83BB3D",
"p+	c #798154",
"q+	c #D9D0AC",
"r+	c #53641C",
"s+	c #4A6118",
"t+	c #83B73E",
"u+	c #A9CF5E",
"v+	c #6A8A2F",
"w+	c #8D7C6D",
"x+	c #3C2612",
"y+	c #5E412E",
"z+	c #EAE1BA",
"A+	c #917F66",
"B+	c #714E3A",
"C+	c #895C47",
"D+	c #8F5E49",
"E+	c #6C5E32",
"F+	c #70972A",
"G+	c #7EC93B",
"H+	c #493D2B",
"I+	c #847C64",
"J+	c #D3CAA7",
"K+	c #838758",
"L+	c #4C6D1B",
"M+	c #738044",
"N+	c #627432",
"O+	c #978E72",
"P+	c #B29F8E",
"Q+	c #705F51",
"R+	c #60432F",
"S+	c #664733",
"T+	c #EDE4BD",
"U+	c #DBD1AD",
"V+	c #D7CCA9",
"W+	c #A69378",
"X+	c #8A5C48",
"Y+	c #6B4533",
"Z+	c #628629",
"`+	c #569D3C",
" @	c #82A743",
".@	c #76A430",
"+@	c #47943A",
"@@	c #2D1800",
"#@	c #A2997D",
"$@	c #C9C19F",
"%@	c #BFB797",
"&@	c #776E58",
"*@	c #716154",
"=@	c #736356",
"-@	c #36210A",
";@	c #4C3320",
">@	c #543D2D",
",@	c #A79484",
"'@	c #BAA587",
")@	c #A18068",
"!@	c #905F4B",
"~@	c #855743",
"{@	c #794F3C",
"]@	c #825843",
"^@	c #7D5540",
"/@	c #A7977B",
"(@	c #A3A679",
"_@	c #699A36",
":@	c #6C942A",
"<@	c #8ABA3D",
"[@	c #7AA234",
"}@	c #A3A67B",
"|@	c #A0A477",
"1@	c #75A230",
"2@	c #78AC3C",
"3@	c #72844B",
"4@	c #C0B797",
"5@	c #DCCDB1",
"6@	c #EBE1BC",
"7@	c #D0C7A5",
"8@	c #B1A48C",
"9@	c #766659",
"0@	c #422B17",
"a@	c #563B28",
"b@	c #503624",
"c@	c #453528",
"d@	c #BBB393",
"e@	c #806953",
"f@	c #754E3B",
"g@	c #8D5E49",
"h@	c #774E3B",
"i@	c #81735C",
"j@	c #C7B192",
"k@	c #7D5440",
"l@	c #B68E4B",
"m@	c #C0974D",
"n@	c #B69D70",
"o@	c #8D8067",
"p@	c #658425",
"q@	c #74A035",
"r@	c #999B73",
"s@	c #83A44D",
"t@	c #4F691B",
"u@	c #D2C9A6",
"v@	c #929D67",
"w@	c #63892A",
"x@	c #645A47",
"y@	c #D0BE9F",
"z@	c #E9DEB8",
"A@	c #D4CAA7",
"B@	c #B5A58E",
"C@	c #543A27",
"D@	c #472F1C",
"E@	c #B4AC8D",
"F@	c #7C6E57",
"G@	c #815642",
"H@	c #B8AB8C",
"I@	c #865A45",
"J@	c #AEA083",
"K@	c #DFC48B",
"L@	c #E9CB8D",
"M@	c #C7A76C",
"N@	c #A48041",
"O@	c #8E8A37",
"P@	c #78A737",
"Q@	c #393A0B",
"R@	c #D8D0AC",
"S@	c #625844",
"T@	c #E2D5B5",
"U@	c #B69885",
"V@	c #CBB697",
"W@	c #8D7A62",
"X@	c #61402E",
"Y@	c #65422F",
"Z@	c #503623",
"`@	c #3D2D1E",
" #	c #B08E7C",
".#	c #EBE1BB",
"+#	c #A29A7E",
"@#	c #7A503D",
"##	c #5E3D2B",
"$#	c #442D19",
"%#	c #93614C",
"&#	c #865945",
"*#	c #A98446",
"=#	c #C7BB9A",
"-#	c #E4D09E",
";#	c #EAD49F",
">#	c #EDE0B5",
",#	c #EBD7A4",
"'#	c #E7C37C",
")#	c #CCA24E",
"!#	c #968438",
"~#	c #7DAB37",
"{#	c #5E5441",
"]#	c #443426",
"^#	c #756558",
"/#	c #746557",
"(#	c #BCA795",
"_#	c #6F5242",
":#	c #7D523F",
"<#	c #8A5B47",
"[#	c #472E1B",
"}#	c #563625",
"|#	c #D2C9A7",
"1#	c #92896F",
"2#	c #724B38",
"3#	c #91604B",
"4#	c #6D4A36",
"5#	c #633F2E",
"6#	c #885D43",
"7#	c #947240",
"8#	c #E5B759",
"9#	c #C59C4F",
"0#	c #E1B358",
"a#	c #EAD098",
"b#	c #ECDBAC",
"c#	c #EAD29B",
"d#	c #E6BF70",
"e#	c #D6AA52",
"f#	c #7E772E",
"g#	c #7EAF3A",
"h#	c #393A0D",
"i#	c #B5AC8E",
"j#	c #CAC2A0",
"k#	c #CAC1A0",
"l#	c #69604B",
"m#	c #625346",
"n#	c #C0AC9A",
"o#	c #856D5B",
"p#	c #C0AB99",
"q#	c #CCB7A4",
"r#	c #C3AE9C",
"s#	c #917665",
"t#	c #885B46",
"u#	c #734F3B",
"v#	c #716255",
"w#	c #CFC2A1",
"x#	c #A59579",
"y#	c #83775F",
"z#	c #6B5944",
"A#	c #7B523F",
"B#	c #92604C",
"C#	c #855A41",
"D#	c #937335",
"E#	c #A37E44",
"F#	c #D7AB54",
"G#	c #E8C784",
"H#	c #E9CF94",
"I#	c #D0A650",
"J#	c #383A09",
"K#	c #E8DFB9",
"L#	c #BDB595",
"M#	c #695A4C",
"N#	c #7E6553",
"O#	c #B9A492",
"P#	c #876B59",
"Q#	c #8C5D48",
"R#	c #855945",
"S#	c #6D4C38",
"T#	c #6A4A36",
"U#	c #79523E",
"V#	c #4A2E1C",
"W#	c #BDA997",
"X#	c #AD8C75",
"Y#	c #E2D6B1",
"Z#	c #A1997D",
"`#	c #674331",
" $	c #83543D",
".$	c #8F652D",
"+$	c #38390B",
"@$	c #39380A",
"#$	c #846B5A",
"$$	c #7E5541",
"%$	c #3A230E",
"&$	c #4D3421",
"*$	c #8F5221",
"=$	c #E89344",
"-$	c #38380A",
";$	c #7EBB34",
">$	c #4D611C",
",$	c #BCB394",
"'$	c #86B43A",
")$	c #2C1700",
"!$	c #D4A954",
"~$	c #B89245",
"{$	c #4A6015",
"]$	c #4D6118",
"^$	c #415B23",
"/$	c #69594C",
"($	c #BCA897",
"_$	c #A79584",
":$	c #3E2815",
"<$	c #8D5937",
"[$	c #E9883D",
"}$	c #9E5B25",
"|$	c #B48F44",
"1$	c #4D611F",
"2$	c #83BA43",
"3$	c #7B8255",
"4$	c #C7BF9D",
"5$	c #645B47",
"6$	c #5A7720",
"7$	c #60422F",
"8$	c #6B5C4F",
"9$	c #3F2F21",
"0$	c #7B543F",
"a$	c #AB9988",
"b$	c #CBB7A4",
"c$	c #DACAAF",
"d$	c #E2D8B4",
"e$	c #C5BD9C",
"f$	c #56361E",
"g$	c #8F5A37",
"h$	c #774419",
"i$	c #D97F38",
"j$	c #DD8139",
"k$	c #A66A2E",
"l$	c #765B27",
"m$	c #7C872F",
"n$	c #89B645",
"o$	c #7BAF37",
"p$	c #7C9251",
"q$	c #9B8168",
"r$	c #9E7961",
"s$	c #704836",
"t$	c #3A3D0A",
"u$	c #4D641C",
"v$	c #475C1C",
"w$	c #465A1F",
"x$	c #3B2511",
"y$	c #4C2F1D",
"z$	c #855744",
"A$	c #835844",
"B$	c #7F5641",
"C$	c #8E5F4A",
"D$	c #5F422F",
"E$	c #BFAA98",
"F$	c #B79886",
"G$	c #BFA592",
"H$	c #DDCEB1",
"I$	c #EAE1BB",
"J$	c #DCD2AD",
"K$	c #6D3E16",
"L$	c #57310E",
"M$	c #597324",
"N$	c #84B246",
"O$	c #84B63A",
"P$	c #6B772F",
"Q$	c #5F3F2C",
"R$	c #593D2A",
"S$	c #49301D",
"T$	c #6F9932",
"U$	c #76A730",
"V$	c #696E2E",
"W$	c #553725",
"X$	c #704A37",
"Y$	c #8E5D49",
"Z$	c #613E2C",
"`$	c #674834",
" %	c #806E5F",
".%	c #C3AF9D",
"+%	c #A47C69",
"@%	c #CCB89B",
"#%	c #E4D7B6",
"$%	c #C6BE9C",
"%%	c #B2A18D",
"&%	c #AC9A89",
"*%	c #766759",
"=%	c #5B7F23",
"-%	c #79B135",
";%	c #7DAF34",
">%	c #76A132",
",%	c #65802D",
"'%	c #729E28",
")%	c #88BE40",
"!%	c #81B040",
"~%	c #52691F",
"{%	c #817163",
"]%	c #795F50",
"^%	c #85725C",
"/%	c #BCB095",
"(%	c #D5C3AC",
"_%	c #9D8C7C",
":%	c #839551",
"<%	c #83BA3D",
"[%	c #82B842",
"}%	c #6E9731",
"|%	c #6A963D",
"1%	c #5C8926",
"2%	c #6E9B2C",
"3%	c #699626",
"4%	c #5D8325",
"5%	c #5F3D2B",
"6%	c #764D3A",
"7%	c #6F4936",
"8%	c #49311E",
"9%	c #4F3522",
"0%	c #36210B",
"a%	c #6C4633",
"b%	c #836757",
"c%	c #AA9787",
"d%	c #DECFB2",
"e%	c #A9A184",
"f%	c #988977",
"g%	c #AF6E43",
"h%	c #714017",
"i%	c #779630",
"j%	c #7CAC3D",
"k%	c #7BAF35",
"l%	c #55953A",
"m%	c #628425",
"n%	c #603D2B",
"o%	c #312705",
"p%	c #527824",
"q%	c #62872E",
"r%	c #312704",
"s%	c #AA7F4A",
"t%	c #BB8C53",
"u%	c #A3774A",
"v%	c #706835",
"w%	c #7D8C53",
"x%	c #674230",
"y%	c #BE7241",
"z%	c #7F4B25",
"A%	c #92AB4F",
"B%	c #9AC459",
"C%	c #7AA532",
"D%	c #7BA743",
"E%	c #726C37",
"F%	c #7A4F3C",
"G%	c #6D4835",
"H%	c #5F402D",
"I%	c #6F4836",
"J%	c #322F0B",
"K%	c #3A390D",
"L%	c #905321",
"M%	c #DB9B49",
"N%	c #E7A64F",
"O%	c #CC9A49",
"P%	c #927234",
"Q%	c #5F7931",
"R%	c #86B93C",
"S%	c #61841F",
"T%	c #628725",
"U%	c #66882A",
"V%	c #BD7448",
"W%	c #8B583F",
"X%	c #94582E",
"Y%	c #8F8843",
"Z%	c #7BB536",
"`%	c #B4CF72",
" &	c #ABCD72",
".&	c #73A02D",
"+&	c #506420",
"@&	c #4A601C",
"#&	c #405414",
"$&	c #4A6223",
"%&	c #D3853C",
"&&	c #DC853C",
"*&	c #A3692E",
"=&	c #5E471C",
"-&	c #50772A",
";&	c #78AC4A",
">&	c #D47C37",
",&	c #D47B36",
"'&	c #6D3E15",
")&	c #B4682D",
"!&	c #5E9233",
"~&	c #86AF4F",
"{&	c #4E6517",
"]&	c #BF9B49",
"^&	c #8E6F32",
"/&	c #A8853E",
"(&	c #A4823C",
"_&	c #62862E",
":&	c #4F6023",
"<&	c #566523",
"[&	c #5F6A29",
"}&	c #4F6118",
"|&	c #435C1F",
"1&	c #49812A",
"2&	c #69A32A",
"3&	c #B4DC6E",
"4&	c #C5E991",
"5&	c #82A939",
"6&	c #D3E58D",
"7&	c #80B958",
"8&	c #94D351",
"9&	c #526C1F",
"0&	c #38380C",
"a&	c #383709",
"b&	c #393809",
"c&	c #688721",
"d&	c #B5D75E",
"e&	c #C9E98C",
"f&	c #C4E77F",
"g&	c #58A62C",
"h&	c #9ABF43",
"i&	c #92BC3F",
"j&	c #D0F189",
"k&	c #87B54E",
"l&	c #83A841",
"m&	c #8CD33D",
"n&	c #83B53A",
"o&	c #AACE65",
"p&	c #8EB73D",
"q&	c #67A248",
"r&	c #86C352",
"s&	c #91BE33",
"t&	c #6D9B38",
"u&	c #4EA12F",
"v&	c #57A142",
"w&	c #6AA435",
"x&	c #4CA341",
"  . + @ # $ % & * = - ; > , * @   = '   ) ! * @ ; % * * % ; ; ; ~ % , - % { - & , > ] , ^ ; / # = * ",
"( * _ : ! < ; # & # $ /   [ & * & $ } ' & : [ ' $ $ * | ; = & # 1 2 3 + 4 * 5 4 4 6 { ; & % 7 { 8 % ",
"9   4 0 a b / ~ * ] c = # : % , d : ^ / : % & % & | 6 $ ; ; - @ e f 1   % , 6 $ #     8 , g h > * * ",
"; 6 % i j , ; ; # $ { * % k b f l ) & / { { & % 7 / % * m $ , '   | { . * - . # ' / # 8 n b o ! & * ",
"4 % ' * & = { ^ @ k ! & & ; n 1 ; [ / ' - p ) l q j , & & # ) & = # = + * ) % > r ' & % i s i % * * ",
"4 ; . * $ $ * & # { ; 4   5 ; & 5 & & * t u 5 v w n ^   & & / ; ; ;   : ^ x e y * ; * * % % 8 * $ % ",
"{ { % & / z { ; A 4 [ 4 . B C * 5 & [   D E 5 : , % 8 * * % ! k { F z % * i G q & * 6 *   4 # ] * > ",
"$ | H I n { # @ ! J e ^ K L M N * : i % O P ; % & = * ; . - * ) @ Q R * S T ! # ; 8 / = $ ; ] - $ ; ",
", % U b k { 4 r V W X ^ $ Y N : Z ` l   ' k & % 5   , / & > * ' * ; #  .5 5 = { % ! - 6 , i 2 ..* ; ",
"6 / k * 4 - * * +.l ! -  .@.#.5 $.H T %.; = / ; # : { @ ( &.6 | *.=., % ; &   {   ) - ] ' v w s * * ",
"@ ' & &   = z * ' 6 & * @ -.;.O % >.,.'.@  .. . * ' #  .).!.5 x W ~.r / , % & & . | D !.5 > , % * # ",
"] = & { 5 = * -   : {., ].{ # * 5  .] ^.@ # 5 = ; > ) * /.T = H (.J 6 * ; , - @ > , M ).5 $ * : _.e ",
":.) > O - # # . 7 i ~.<.n % 4 % ! . ; , ^ J x & ~ [ $.[.}., 4 $ $ @ $ # 4 & 7 k & % ; * ; ' ^ v V ..",
"x X ~.* @ |._.h / ! 1.l * # 5 ! [ ; % ; 2.<.x [   8 $.G 0 & * 3.4.5.6 ; {.h 6.6.& ; & 4 ; > 8 l 7.> ",
"0 8.9.} ,.1 0.~.  = , 6 ~   ; ;   & ) , n ].a.b.c., , , : | R d.e.f.g.! r b 2.i $ ; ' 7 * | & ; % ' ",
"+ , 4 h.i.j.(.! * / % { ! = 4 H 5 * # ; ^ % k.l.m.n.o.- ~ p.q.r.s.t.u.v.w.x.5 * *   ' ! * $ ; ; ; / ",
"5 & & ; , & 6 * # y.z.6 @ % { @ & & : % ; > A.B.C.D.E.k.F.G.H.I.J.K.L.M.N.N.F.O.% P.; @   Q.r ' 8 = ",
"p { / R.S.& |.c T.-.U.  # , 1 ~ @ - 6 - ; { A.V.C.C.B.W.W.W.W.X.Y.Z.L.`. + +W..+| # 5 6 $ , # S = * ",
", '.D 5 ^.++R.) % : @+, #+b $+%+5 ; &+*+- =+D.-+ +C.B.;+>+,+W.X.'+'+L.W.W.W.W.W.)+# > h $+s ; @ % * ",
"{ !+++|.~+z.i.: {+]+* ^+/+].! X 9.(+_+:+W.W.D.C.C.C.<+[+>+>+,+}+|+1+>+>+>+>+>+>+2+W.3+~.4+k } : * * ",
"# + <.W x * | 5+6+' 7+8+> 4 & <.~.9+0+X.a+b+c+d+d+C.e+f+g+>+,+h+i+j+>+>+>+>+>+>+k+i+l+m+!  .~ & * ; ",
"  @+$+j.- ^ @+&.n+o+p+q+r+s+t+r -.u+v+w+'+L.x+y+W.m.z+A+B+C+k+D+>+>+>+>+>+>+>+>+>+>+k+E+F+; ; X * * ",
"' G+; %+  %.- / r H.H+I+J+J+K+L+M+N+O+a+P+Q+R+S+W.J+T+U+V+W+X+>+>+>+>+>+>+>+>+>+>+>+>+Y+Z+s ~.`+* * ",
"- %+[ , U. @.@6 v +@W.@@#@C.$@%@&@W.*@s.=@-@;@>@,@#@#@#@'@)@!@~@,+{@>+>+>+>+>+]@^@^@^@/@(@_@n , * ; ",
"* = :@<@[@}@|@1@2@3@4@4@4@5@6@C.7@8@9@0@a@b@W.c@'+W.d@4@e@f@g@h@W.i@j@>+>+>+k@l@m@m@m@n@o@p@] & * * ",
"; q@r@s@t@4@u@v@w@x@$@C.C.'+y@z@A@B@9@0@a@C@D@c@'+,+-+C.E@F@G@h@W.&@H@>+>+I@J@K@L@L@L@M@N@O@P@, * * ",
"& Q@R@D.W.4@C.%@W.W.S@%@T@'+U@V@W@X@,+,+,+Y@Z@`@,@ #.#C.C.+#@#~@##$#2+%#&#*#=#-#;#>#C.,#'#)#!#~#* * ",
"& Q@R@#@{#4@C.%@W.]#^#/#(#'+'+ #_#:#>+>+>+<#[#}#W.'+|#-+U+1#2#3#X+4#5#6#7#8#7#9#0#a#b#b#c#d#e#f#g#* ",
"; h#R@C.i#j#C.k#l#m#n#'+o#p#q#r#s#C+>+%#[+t#u#%#2+L.v#w#x#y#z#A#>+B#C#D#8#8#8#E#F#8#8#8#G#H#8#I#J#* ",
"; h#R@C.C.C.C.K#L#W.M#'+'+N#O#P#Q#>+%#R#S#T#U#>+>+V#W#X#Y#C.Z#`#j+ $.$8#8#8#8#8#8#8#8#8#8#8#8#I#+$; ",
"& @$R@C.C.C.C.4@|+W.M#'+'+'+#$[+>+>+$$k@I@u#>+>+>+>+%$R@C.C.Z#&$a@*$=$8#8#8#8#8#8#8#8#8#8#8#8#I#-$; ",
";$% >$W.%@C.,$Z#j#s+'$)$'+'+#$[+>+^@R#>+I@u#>+>+>+>+%$W.R@C.Z#W.W.*$=$!$ + +W.W.W.W.~$8#8#8#I#{$% ; ",
"& & ]$R@C.C.C.4@^$^ & , |+'+/$;+>+>+>+I@^@>+>+>+>+>+%$W.($'+'+'+_$W.:$<$[$[$[$[$[$[$}$|$8#~$1$5 * * ",
"  * 2$3$k#C.4$5$6$* # 6 7$8$9$;+>+>+>+I@S#0$>+>+>+>+%$a$b$'+'+c$d$R@e$f$g$h$h$i$[$[$j$k$l$m$n$& % % ",
"& ; { o$p$q$r$s$t$u$v$w$N.R+x$y$z$>+A$B$C$!@>+%#2+2+D$E$'+F$G$H$C.C.I$q+J$L.)$K$h$h$h$L$M$N$; % $., ",
"; $ ; ; O$P$5#Q$R$R$R$R$R$S$T$U$V$5#W$X$>+Y$5#Z$W.R$`$ %.% #+%@%C.C.C.C.C.#%$%%%&%&%*%=%-%7 x `+9.k ",
", * * 4   ;%>%,%;@;@;@;@;@'%)%6 !%~%W.y$,+Y@b@W.W. + +N.{%]%,+^%/%5@5@5@5@C.C.(%_%s.:%<%& # d 6.k % ",
"+ > # 4 & & ] [%}%|%1%2%3%6 @ . # 4%5%6%6%7%8%W.W.9%9%0%a%6%6%6%b%c%'+'+'+d%e%f%g%h%i%] > C B # % $ ",
"j%k%^ % , { ' * 4+l%h ) ' ' ; ; ~ m%h@>+!@G@n%o%p%q%r%W.s%t%t%u%v%w%_$_$_$_$x%,+y%z%A%* : B%L * ; & ",
"j.C%l i o k { * 6.e ] @ p D 5+@ , D%E%F%G%H%I%J%0 6 K%L%M%N%O%P%Q%R%S%T%U%W.V%V%W%X%Y%<%{.* p ^ % * ",
"Z%d I l%l , `%y.G+# :.6+p.Q  &* 5 & .&]$+&@&#&$&/ 5 K%%&=$&&*&=&-&% | ' ;&{$>&,&'&)&L%!&~.J ; c * * ",
"~&C%% r & : @.).6+%.z.n+! , * |.|.l j =.{ . $ & & ) {&]&I#^&/&(&_&& x 2.~.! :&<&[&}&|&1&2&3&4&P * * ",
"j.5&& ' { % 3&5 6&,.: 7&6.$.@ z.8&w b r % * # %+* : & 9&K%0&a&b&c&^ i 6.^+% p d&e&%+/ r $ %.R  .* * ",
";$k%/ ' . = f&z.; * r 0.g&> h&i.,.Z%} _.% & | ^ 5 % , P.h ! - 6 _ l % 6 4 ; % x i { / @ . + / : * * ",
"J j%% # # 4 p.5 J : t  &% 5 i&G+p.$ & : ; * ' ! # = =.}.b ,   * * ;   c ~ ;&a 8.& ^ @+  z.j&. _.* * ",
"k&l&#   ! r k & * / D y.# & / m&= ' / 7 ; n&.   = & H n r & [ ; # ' ^ % { ].j ^+@ * 4 # M o&c - * * ",
"p&5&* ; q&f 1.% - # : r&k 1 ' s&* 8&;   # . + 7 1 / 4 % * 4   i S k 1 ~+=.* # & @ ] - / & : $ j%; ; ",
"n&t&^ {.9.X 5   ; % * b u&1 :.% { ; * =   & $.v&}., 4 * 5 - * { # , `+4+].# U.* . , @+& 5 w&~.x&; ; ",
"d Z%, * $ % ; * = ; ; x x , % * 5 * =   $ { > v * * ; / / ; $ { * * # * % % % ; ; * > ; ' Z%v + ; ; ",
"+ > = * % ; ; * * > % ; ^ ! ; * , > =   ; % { , * * % * * ; $ % % ; 6 * % ; ; { * 8 % * 8 { , ^ ; ; "};
