/* XPM */
static char *_31b1b005c014a6aa37cc327ffc12673F9ZaRpqX6a0ftqoo[] = {
/* columns rows colors chars-per-pixel */
"50 50 116 2 ",
"   c #2F461F",
".  c #314316",
"X  c #314D16",
"o  c #30441B",
"O  c #364B18",
"+  c #394F1C",
"@  c #37521C",
"#  c #3B531B",
"$  c #2F4623",
"%  c #2E4A24",
"&  c #2D492A",
"*  c #3E5A27",
"=  c #375B2D",
"-  c #3E5A29",
";  c #294D33",
":  c #2B5433",
">  c #2D5C32",
",  c #315A33",
"<  c #2C622B",
"1  c #2F682E",
"2  c #31662B",
"3  c #326B2E",
"4  c #37722F",
"5  c #3D762E",
"6  c #2F6532",
"7  c #306532",
"8  c #326E31",
"9  c #3B6931",
"0  c #367332",
"q  c #397532",
"w  c #3C7B33",
"e  c #455E1F",
"r  c #46601F",
"t  c #476120",
"y  c #486220",
"u  c #4C6822",
"i  c #4A6A2C",
"p  c #506E24",
"a  c #447F2F",
"s  c #547325",
"d  c #577926",
"f  c #587827",
"g  c #547B2A",
"h  c #5C7E29",
"j  c #406333",
"k  c #416832",
"l  c #437632",
"z  c #427D32",
"x  c #4B7E31",
"c  c #527733",
"v  c #527833",
"b  c #3F8235",
"n  c #46802E",
"m  c #4A842E",
"M  c #4F8A2E",
"N  c #58822F",
"B  c #528E2E",
"V  c #56932F",
"C  c #5A992F",
"Z  c #448434",
"A  c #498633",
"S  c #468835",
"D  c #4C8C34",
"F  c #548331",
"G  c #598732",
"H  c #518D32",
"J  c #5F8B32",
"K  c #539435",
"L  c #5C9433",
"P  c #579834",
"I  c #5C9B33",
"U  c #688E2E",
"Y  c #618D32",
"T  c #659432",
"R  c #6C9531",
"E  c #639C34",
"W  c #6E9A32",
"Q  c #6B9D32",
"!  c #6D9F32",
"~  c #709932",
"^  c #709F32",
"/  c #5FA031",
"(  c #63A333",
")  c #64A333",
"_  c #67A533",
"`  c #61A134",
"'  c #65A034",
"]  c #6BA033",
"[  c #6EA132",
"{  c #6AA633",
"}  c #6FA433",
"|  c #6BA334",
" . c #6BA434",
".. c #6DA634",
"X. c #68A833",
"o. c #6FAB32",
"O. c #6FAF32",
"+. c #70A032",
"@. c #71A733",
"#. c #73A933",
"$. c #77AA33",
"%. c #70AF32",
"&. c #77AD33",
"*. c #78AB32",
"=. c #7BAF33",
"-. c #7CAE32",
";. c #70B032",
":. c #75B132",
">. c #7BB332",
",. c #7CB033",
"<. c #7BB432",
"1. c #7EB532",
"2. c #80B332",
"3. c #81B432",
"4. c #84B732",
"5. c #86B832",
/* pixels */
"~ ~ ~ ~ ~ ~ ~ ~ ~ ~ ~ ~ ~ ~ ~ ~ ~ ~ x 8 8 8 8 8 8 F ~ ~ 0 8 8 8 8 8 8 J ~ ^ O.O.^ ~ +.O.O.~ ~ ~ ~ ~ ",
"~ ~ ~ ~ ~ ~ ~ ~ ~ ~ ~ ~ ~ ~ ~ ~ ~ ~ x 8 8 8 8 8 8 F ~ W q 8 8 8 8 8 8 J ~ ! O.O.^ ~ +.O.O.~ ~ ~ ~ ~ ",
"~ ~ ~ ~ ~ ~ ~ ~ ~ ~ W 0 8 8 8 8 8 8 S K E 4.4.4.4.! 8 8 3.4.4.4.3.K K z 8 l ~ ~ o.O.o.~ ~ ~ ~ ~ ~ ~ ",
"~ ~ ~ ~ ~ ~ ~ ~ ~ ~ W 8 8 8 8 8 8 8 S K E 5.5.5.5.[ 8 8 4.5.5.5.4.K K z 8 l ~ ~ o.O.o.~ ~ ~ ~ ~ ~ ~ ",
"~ ~ ~ ~ ~ ~ ~ ~ Y F F Q Q Q Q Q Q Q @.#.#.....3.5.-.Q Q ....=.5.4.#.#.[ Q T F F H K L ~ ~ ~ ~ ~ ~ ~ ",
"~ ~ ~ ~ ~ ~ ~ ~ G 8 0 5.5.5.5.5.5.5.5.5.=.K K 2.5.5.5.5.K K #.5.5.5.5.5.5.-.8 8 8 8 x ~ ~ ~ ~ ~ ~ ~ ",
"~ ~ ~ ~ ~ ~ ~ ~ G 8 0 3.3.3.3.3.5.5.3.3.&.K K =.3.3.5.5.K K #.5.5.3.3.3.3.*.w w q q x R R W ~ ~ ~ ~ ",
"~ ~ ~ ~ ~ ~ ~ ~ G 8 8 K K K K I 5.5.E K D b b K K | 5.5.K K #.5.4.K K K K I ;.;.I K S 8 8 R ~ ~ ~ ~ ",
"~ ~ ~ ~ ~ ~ ~ ~ G 8 8 K K K K I 5.5.' K D b b K K  .5.5.K K #.5.4.K K K K I O.O.I K S 8 8 R ~ ~ ~ ~ ",
"~ ~ ~ ~ ~ ~ x x A D D X.X.K S S L L ) X._ _ _ X.X._ E E S S K E E X.X.K S S I I $.=.Q 8 8 R ~ ~ ~ ~ ",
"~ ~ ~ ~ ~ ~ q 8 Z K K O.O.K b b b b ) O.O.O.O.O.O._ K K Z b D K K O.O.K b Z K K ,.5.@.8 8 R ~ ~ ~ ~ ",
"~ ^ +.W Y Y z w D I I O.O.I K K b b { :.:.O.O.O.O.( D D L L I I I O.O.I K K I I @.$.Q w w J Y T ~ ~ ",
"~ o.O.I 8 8 K K ` O.O.O.O.O.O.X.b b $.5.3.O.O.O.O.I b b 4.5.<.O.O.O.O.O.O.O.O.O.D b S K K 0 8 F ~ ~ ",
"~ o.O.I 8 8 K K ` O.O.O.O.O.O.X.b b $.5.3.;.%.O.O.I b b 4.5.<.O.O.O.O.O.O.O.O.;.D b S K K 0 8 F ~ ~ ",
"~ ~ ~ Y 8 8 K K ..4.4.O.O.I S D O.O.K S L 4.5.K S K o.o.S S [ 4.3.O.O.O.O.X.S S Z b L 3.3.l 8 F ~ ~ ",
"~ ~ ~ Y 8 8 K K ..5.5.O.O.K b S O.O.K b L 5.5.D b K O.O.Z b ] 5.4.O.O.O.O.X.b b b b L 5.5.l 8 F ~ ~ ",
"~ J G F Z Z Z Z Q 5.4.I I I I I O.O.( I I [ [ I I ( O.O.I I E [ [ >.>.{ I I I I I I E [ [ z q A G G ",
"~ l 8 z K K 0 8 T 5.4.Z b I O.O.O.O.O.O._ b b X.O.O.O.O.O.O.I b S 5.5.E b D O.O.O.O.( b b b b q 8 8 ",
"~ l 0 z K K 0 8 T 4.3.Z b I %.%.O.O.O.O._ b b X.O.O.%.%.O.O.I Z S 4.4.E b D ;.%.O.O.( Z Z b b q 8 8 ",
"~ ~ ~ Y 8 8 b b q 8 8 b b } 5.3.O.O.O.O.( 8 8 w b E 5.5.%.O.O.O.O.b b b b H 5.5.:.O.O.O.O.S b q 8 8 ",
"~ ~ ~ Y 8 8 b b q 8 8 b b } 5.3.O.O.O.O.( 8 8 w b E 5.5.%.O.O.O.O.b b b b H 5.5.:.O.O.O.O.S b q 8 8 ",
"~ G F A S S D D S S A q q H E E 1.1.:.O.( 8 8 w b E 5.5.1.1.:.O.O.q q w b S L L &.1.#.H H q q A J J ",
"~ l 8 z K K K K K K K 8 8 q b D 5.5.:.O.( 8 8 w b E 5.5.5.5.>.O.O.8 8 w b w 8 8 *.5.@.8 8 8 8 F ~ ~ ",
"~ l 8 z K K K K K D D q 0 q w S -.-.o._ I 0 0 w w L -.-.-.-.#._ ) q q Z S Z q q +.=.Q 0 0 8 8 A T T ",
"~ l 8 z K K K K Z 8 8 b b q 8 0 b b q 8 0 b b 0 8 q b b b b q 8 0 K K K K K K K q 8 q b b 0 8 8 8 8 ",
"~ l 8 z K K K K Z 8 8 b b q 8 0 b b q 8 0 b b 0 8 q b b b b q 8 0 K K K K K K K w 8 q b b 0 8 8 8 8 ",
"~ k : l I / 5 3 m I I K K D D S 0 0 S D D K K D D Z 0 0 0 0 A I I K K K K K K K w 8 z I I D D Z 8 8 ",
"~ j ; l ( ( 2 < m ( ( K K K K K 8 8 S K K K K K K A 8 8 8 8 D ( ( K K K K K K K w 8 Z ( ( K K Z 8 8 ",
"~ j ; 9 B B 4 3 a B B I I H S A A A K K K K K S S Z z z z z A B B I I K K K S S w q z B B I I A 8 8 ",
"~ j ; : < < b b q < < ( ( A 8 q ( ( P K K K K q 8 z K K K K z < 2 ( ( I K D 8 8 w b q < < I ( H 8 8 ",
"~ j ; : < < b b q < < ( ( A 8 q ( ( P K K K K q 8 z K K K K z < 2 ( ( I K D 8 8 w b q < < I ( H 8 8 ",
"~ j ; > 8 8 K K S b b 2 2 q b w < < V ( I K K q 8 A ( ( K K K K K < 2 B ( C < < q b q < < I ( M < < ",
"~ j ; > 8 8 K K D b b < < q b w < < V ( I K K q 8 A ( ( K K K K K < < B ( C < < q b q < < I ( M < < ",
"~ i - = > > z Z S D S < < q b b q q n m m z z q q z m m z z H I I z z m m m q q w b w q q x x F N N ",
"~ s y - ; ; 8 8 Z K K < < q b b b b 3 < < < < w b q < < < < M ( ( K K 5 < 2 b b b b b b b : ; c ~ ~ ",
"R p r * ; ; 8 8 z K K 2 2 q Z Z b b 3 < < 1 1 w b q 1 1 < < m I I K K 5 1 2 b b Z Z Z b b : ; v ~ ~ ",
"y O . $ ; ; ; ; > 8 8 K K K K K b b 3 < 2 b b b b b b b 8 8 1 < < < < q b w 8 8 D K D b b : ; F O.O.",
"y O . $ ; ; ; ; > 8 8 K K K K K b b 3 < 2 b b b b b b b 8 8 1 < < < < q b w 8 8 D K D b b : ; F O.O.",
"y O . o $ $ ; ; : > > w w w w w q q 8 2 q D D D D D D D w w 8 < < q q w b b w w w w q 7 7 % % g +.+.",
"y O . . . . ; ; ; ; ; 8 8 8 8 8 8 8 8 8 w K K K K K K K Z b 0 < < b b b b b b b 0 8 6 ; ; X X d ~ ~ ",
"y O . . . . & & ; ; ; 7 7 7 7 7 7 7 7 7 q D D D D D D D S S q 1 1 S S S S S w w 8 7 > & & @ @ d ~ ~ ",
"y O . . . . . . % ; ; ; ; ; ; ; ; ; ; ; : 8 8 8 8 8 8 8 K K Z 8 0 K K K K D 8 8 : ; & . . e y h ~ ~ ",
"y O . . . . . . % ; ; ; ; ; ; ; ; ; ; ; : 8 8 8 8 8 8 8 K K Z 8 0 K K K K D 8 8 : ; & . . e t h ~ ~ ",
"y O . . . . . . o o o ; ; ; ; ; ; ; ; ; ; : : : : : : : , , : : : , , , , , : : $ o + e e U R R ~ ~ ",
"y O . . . . . . . . . ; ; ; ; ; ; ; ; ; ; ; ; ; ; ; ; ; ; ; ; ; ; ; ; ; ; ; ; ;   . + y t R ~ ~ ~ ~ ",
"h e # # # # . . . . . & & & & & & & & & & & & & & & & & & & & & & & & & & & & & @ # y h h R ~ ~ ~ ~ ",
"~ s y y y y . . . . . . . . . . . . . . . . . . . . . . . . . . . . . . . . . . e y d ~ ~ ~ ~ ~ ~ ~ ",
"~ s y y y y . . . . . . . . . . . . . . . . . . . . . . . . . . . . . . . . . . e y f ~ ~ ~ ~ ~ ~ ~ ",
"~ ~ ~ ~ ~ ~ u y y y y y y y y y y y y y y y y y y y y y y y y y y y y y y y y t U ~ ~ ~ ~ ~ ~ ~ ~ ~ ",
"~ ~ ~ ~ ~ ~ u y y y y y y y y y y y y y y y y y y y y y y y y y y y y y y y y y U ~ ~ ~ ~ ~ ~ ~ ~ ~ "
};
