/* XPM */
static char *_f098b2efe8e402be91c6bb5c7e24d249qaZvw4Zu8s0aLUh[] = {
/* columns rows colors chars-per-pixel */
"49 50 256 2 ",
"   c #0D0B04",
".  c #0B090A",
"X  c #120B04",
"o  c #120C0C",
"O  c #120508",
"+  c #0E1006",
"@  c #15130C",
"#  c #141206",
"$  c #140C12",
"%  c #160D19",
"&  c #181212",
"*  c #0E0B13",
"=  c #291B18",
"-  c #2B2917",
";  c #281925",
":  c #331D35",
">  c #2F1B33",
",  c #392C2B",
"<  c #333729",
"1  c #392838",
"2  c #3A3634",
"3  c #2B282A",
"4  c #432939",
"5  c #453A38",
"6  c #553C38",
"7  c #4A332A",
"8  c #57352B",
"9  c #374737",
"0  c #3D4F30",
"q  c #46482A",
"w  c #555C28",
"e  c #464638",
"r  c #5A443B",
"t  c #485737",
"y  c #56593A",
"u  c #4A5927",
"i  c #644639",
"p  c #645639",
"a  c #725630",
"s  c #5C672B",
"d  c #5D6635",
"f  c #5D653B",
"g  c #586836",
"h  c #5E7137",
"j  c #67692B",
"k  c #68722A",
"l  c #747B2B",
"z  c #656839",
"x  c #687738",
"c  c #737A3A",
"v  c #78683C",
"b  c #5C581B",
"n  c #3C2745",
"m  c #3F1C44",
"M  c #452948",
"N  c #4A3848",
"B  c #553849",
"V  c #492A54",
"C  c #4C3555",
"Z  c #5B3C54",
"A  c #573957",
"S  c #5C2C44",
"D  c #643B51",
"F  c #583966",
"G  c #623965",
"H  c #3C4C4C",
"J  c #4D4444",
"K  c #594647",
"L  c #4A5844",
"P  c #5A5549",
"I  c #594556",
"U  c #585654",
"Y  c #494C57",
"T  c #684646",
"R  c #734C48",
"E  c #675747",
"W  c #7A554C",
"Q  c #78584B",
"!  c #64425A",
"~  c #644C5B",
"^  c #694857",
"/  c #724C5B",
"(  c #744C54",
")  c #695657",
"_  c #7C5B5B",
"`  c #775557",
"'  c #586847",
"]  c #576658",
"[  c #586D50",
"{  c #666A47",
"}  c #766848",
"|  c #6A7748",
" . c #767848",
".. c #6A6959",
"X. c #7C625A",
"o. c #786857",
"O. c #6A7755",
"+. c #757956",
"@. c #5D4462",
"#. c #525D63",
"$. c #634362",
"%. c #694A68",
"&. c #754B67",
"*. c #6D5665",
"=. c #7B5463",
"-. c #775767",
";. c #7C5775",
":. c #6C4F71",
">. c #5A6763",
",. c #7A6463",
"<. c #6E7565",
"1. c #8D7638",
"2. c #956A3C",
"3. c #86584C",
"4. c #875C58",
"5. c #915B53",
"6. c #8B654A",
"7. c #976A4E",
"8. c #877C4B",
"9. c #8B645B",
"0. c #876859",
"q. c #946C5B",
"w. c #976857",
"e. c #887657",
"r. c #9C735B",
"t. c #957357",
"y. c #9B774A",
"u. c #A46859",
"i. c #A7795C",
"p. c #B17658",
"a. c #835C63",
"s. c #835969",
"d. c #895E71",
"f. c #8C6B62",
"g. c #896568",
"h. c #976C67",
"j. c #987567",
"k. c #886476",
"l. c #967372",
"z. c #8D716D",
"x. c #A36C68",
"c. c #A67A69",
"v. c #B87968",
"b. c #A77C75",
"n. c #B17374",
"m. c #A65E4F",
"M. c #C37C68",
"N. c #C97D72",
"B. c #C2765F",
"V. c #788927",
"C. c #788535",
"Z. c #7E9434",
"A. c #729020",
"S. c #798646",
"D. c #7A9646",
"F. c #778555",
"G. c #708558",
"H. c #7A8665",
"J. c #859227",
"K. c #859638",
"L. c #868F33",
"P. c #8BA53C",
"I. c #B39734",
"U. c #848C4A",
"Y. c #8B9344",
"T. c #879647",
"R. c #868956",
"E. c #978A5B",
"W. c #899455",
"Q. c #919556",
"!. c #929B4C",
"~. c #AD8B56",
"^. c #8DA345",
"/. c #908A66",
"(. c #AC8368",
"). c #B6876B",
"_. c #BB9369",
"`. c #A88577",
"'. c #B78777",
"]. c #BB9473",
"[. c #AE906D",
"{. c #B4A858",
"}. c #DE975B",
"|. c #D08E5E",
" X c #E3985C",
".X c #D0A05F",
"XX c #C88669",
"oX c #D58A6C",
"OX c #CB936B",
"+X c #C7966A",
"@X c #DA9767",
"#X c #C78874",
"$X c #C89477",
"%X c #D69776",
"&X c #D68973",
"*X c #E39C64",
"=X c #E49C6B",
"-X c #EB9D6B",
";X c #E79766",
":X c #E79B75",
">X c #EC9568",
",X c #D9A169",
"<X c #D8A47B",
"1X c #CFAD71",
"2X c #E5A36B",
"3X c #EAA36C",
"4X c #EBA769",
"5X c #F5AB69",
"6X c #F8B66C",
"7X c #EDA573",
"8X c #EDAB73",
"9X c #E9A778",
"0X c #F3AC74",
"qX c #F5AB77",
"wX c #EEB478",
"eX c #F4B274",
"rX c #F3B479",
"tX c #FAB37B",
"yX c #F5BA7D",
"uX c #FBBB7D",
"iX c #FBB775",
"pX c #E2A15F",
"aX c #FEC37B",
"sX c #F8C375",
"dX c #FDC36F",
"fX c #756894",
"gX c #913E90",
"hX c #92798B",
"jX c #B771AD",
"kX c #AD738B",
"lX c #D279B3",
"zX c #D57EDD",
"xX c #B48786",
"cX c #BB9388",
"vX c #AC8C81",
"bX c #B1999D",
"nX c #C79983",
"mX c #D59D87",
"MX c #CD9094",
"NX c #D6A886",
"BX c #D1AD91",
"VX c #E8B88C",
"CX c #F6BB83",
"ZX c #FCBE82",
"AX c #FAB886",
"SX c #E7B696",
"DX c #F7BD95",
"FX c #EDAA89",
"GX c #C68FB7",
"HX c #D6B1A3",
"JX c #FDC284",
"KX c #FEC48A",
"LX c #FBC889",
"PX c #F6C295",
"IX c #E6CB9E",
"UX c #D498D3",
/* pixels */
"U P ] f g s x y p y.1. .L ] +.F.S.+.O.' 9 >.Y >.[ [ ..' v kXlXMXUXjXGXfXx >.<. .S.| s | F.F.E e./.",
"[ [ ' ' L u k j a y.1.v +. .c S.c R.G.] ] [ <.] >.] ] O.1X1XGXzXjXMXGXbX' F.F.D.+.Y.Y.Y.W.{ U.E.1X",
"| y O.] #.t  .j a a ~.l U.U.+.O.+.+.' O.G.| G.O...[ [ <.8.cXUXgXUXjXUXl.R.K.U.Z.T.Y.Y.T.T.T.Q.[.IX",
"t.E.v ..O.' ' 0 q p } j K.S.W.| | +.S.S.S.F.+.+.| | H.{ l hXUXk.k.0.)  ...U.R.E.!.W.Y.!.S.C.BXnX].",
".XI.1.8.T.D.G.u u w R.e. .R.U. .o...e.S.!.T.U.U.R.R.Q.S.O. .+.Y.8.F.F.| ' +. .R.U.T.U.T.!.R.E.e.t.",
"{.{.a 8.L.S.C. .d { ..4.g.-.! k.b.h.X.o.R.Y.T.W.^.K.!.D.W.o.` *._ ) 0.kXl.P { o.8.Q.W.!.Y.Y.1.E.R.",
"j j s { {  .C.Q. .P ,.~.,X].W ` i.].t.,.P E o.o.' R.} } Q %.c.$X[.X.(.@XXX;.-.~.h.r Y.W.S.T.Q.K.T.",
"z { x S.G.T.K.U.} ) -.x.OXy.0.-.a.h.e. .) A =.7.g.D a.c.cX} `.i.} P *.h.q.z.^ w.xXz.) R.T.Z.!.U.T.",
"+.| H.T.Y.K.W.} R '.n.T X.W 3.Q P A ..+.K I ! _ =.T ` ^ $.A ~ $.| | o.K %.%.T X.0.) ! I R.K.S.T.U.",
"c x ' U.W.T./.P h.+X_.f.%.$.mX<X`.s.0.3.W `.'.9.b.'.'.c.^ ` Q ( ..U ) `.NX'.B %.E ~ g.,.` F. .F.| ",
"c h u  .R.S.{ I =.j.f._ [.7 c.).w.v.%X$Xv.%X%X%X%X%X@X%Xw.'._.'.9.Z -.n.%X(.6 k.o.{ E f.^ L g x K.",
"t 9 H t q ) A A ) { o.t.<Xg.! q.$X<X}.%X'.<X).~.%XOX@X%Xv.%X<X%X+XQ N ( f.T e._.P O.P -.&.H t j V.",
"0 H H 9 e *.D l.+.| U l.'.;.` r.<XVX<XSX$XVX$Xc.SXDXVX%Xc.$X,X<XOXj.X.j.h.K z.i.) e *.*.4 9 ' j x ",
"Z.t 0 L e B W _.j.B F ;.( c.1X(.nXSXVXmXu.c.g.h.).$X$X(.9.(.+XVXNX`.Q v.$Xc.T _ ^ 5 ) +.} t s z l ",
"K.S.s 9 2 1 W h.( g.Z ^ f.NXPXb.s.h.7.q.j.g.&.f.q.j.t.h./ 9.6.c.r.xX^ 4.).mX9.4 C A K U ) t { x C.",
"V.J.V.t < 3 ( :.=.).x.( $Xv.x.t./ / _ _ o.T $.,.9.9.9./ C -.g.=.4.( *.z.6.(.`.B 4 ,.g.@.I 0 w A.x ",
"P.Z.Z.c - : A / i.].w.9.b.4.q.y.0.*.! ` D 4 ; N C Z A N 3 Y ~ / Q Z =.r.7.a.:.A s.K k.-.5 f k c s ",
"P.P.V.C.- : C ! j.9.j.xX4.a.g.s.g.%.~ `.T O o % $ O o o . & = l.`.! k.t.6.-.$.Q c.^ ^ =.N f l z d ",
"V.^.P.b z N M $.-.T BXNXr.0.^ %.^ V 5 z.0.$ X . + X X   o X 7 xX=.4 @.^ W ! %.4.).z.B &.e g x z f ",
"J.Z.^.Z.C. .5 C :.! l.q.r.Q f._ Z 3 5 B ,.. + @ . & o o . $ K g.4 3 A ;.h._ ;.g.r.`.A A < g  .s f ",
"J.J.K.P.A.Y.7 I F B g.4.=.s.z.0.@.2 < K ; @ . X $ o o $ * $ 2 5 q < C s.y.q.^ =.q.-.M %.N g l f d ",
"V.V.J.J.L.k y I C -.'.c.` ! -.) C < t y @ + % O & O @   o     @ t t N =.w.t.~ @.( I C ! J z C.z y ",
"w U.l k S.s q J n _ _.y.t.` A M 1 g x t #   * & o X @   o @   @ L f y $.k.g.~ V A 5 ) / E g x g e ",
"9 y f d k x y < > ` h.h.h.=.%.M P x S.-   * o X $ o o $ $ $ & @  .h { 4 %.A N Z 1 : g.f.) f x < , ",
"H 9 d s d C.j < > ~ *.k.` =.$.1 G.x y o * +   o o o o @ @ o o $ y | F.< : B Q ,.%.M s.0.) y x e : ",
"e e q z d c s < V I I :.&.%.A J | +.# X o @ X & o & o   X & & O - | F.q ^ g.q.9.X.B G k.N y c < 1 ",
"7 r 8 7 u x x < N ~ -.$.M C 1 O.O.y , 5 , = , 6 K 5 - = , 5 5 , # f S.p _ g.7.r.e.^ G A ; e | 3 B ",
"p i Q r f x g - 4 f.X.-.A n 2 d y 5 K 6 6 K 6 r r r r 6 6 6 r J ; - x z K s.9.q.) N :.%.N P P 1 X.",
"v p 0.} z x y = 4 _ f.4.Z M 5 O.+.e K i R i T i i W 4.W T T T 6 B J F.| 5 %.-.4.@.m $.*.4 I N 1 Q ",
"E o.X.e.w x L = M %.a.s.%.C 2 < q K T 3.3.4.R R 3.5.5.3.3.3.R T B 6 q t 3 C ! B 1 V A C A Z B ( 0.",
"o.X.a./.j h 2 : : V &.! V n t e X.i 5.u.u.7.u.5.w.u.v.v.p.w.3.W 5.` p { 2 C ^ *.z.A I %.A M :.,.j.",
") R s.E s g 2 M N C A Z M ; { d 6 q.u.M.N.XXv.n.p.M.oXM.M.v.x.q.m.3.} e.6 ^ _ g.w.^ B :.%.! M N B ",
"R 0.0.0.E J , B N Z a.:.C 1  .F.y 6.v.v.M.XXp.B.M.M.v.p.v.XXXXM.v.r.e.| 5 @.^ d./ V I K / ^ 4 ! s.",
"M Z -.~ 1 1 1 I M =.9.-.%.4 } | { e.v.N.#XM.XX:XpX@XoXXXXX@X=X X%Xw.w F.2 N ) X.( V @.%.F A V B ~ ",
"&.S 4 4 4 Z 4 M m 4.4.-.$.C 5 O.{ e.v.XXoXoXoX:X X=X&X&X&X%X=X*X$Xj.}  .- ^ h.q.9.C N / D R R W 3.",
"OXXXXXXX#X'.w.h.4 vXHX:.%.C , +.r i.OX3X3X2X@XXXoXoXoXoX%X:X%XoX} H.{ y ) ~ z.q.g.A i ).OX@XOX@X@X",
"}.4X X X X;X@XoXg.(.`./ ( i j.[.].<X@X4X5XeX9X:X%X=X*X*X4X4X=XoX8.} E.e.T / ` ].hX&.6.7X*X X;X>X*X",
"*XqXtX5X X X3XXXr.SXmXi.$X@X:X9XCXAX3X7XtXtX4X}.0X0X0X4X5XiXrX7X7XrX@X%X#XxX4.NX'.l.#XAXtX4X=X:X@X",
"oX@X:X;X X3X9X).$XOXOXp.#X7X7XAX0XtX7X=X3X=X*X XeXZXAX7X7XtXtXqXAX5XtX|.OXc.c.VX_.h.XX X-X X@X-X0X",
">X;X;X X X=X#X'.SXNXNX].( #X=XeXtX3X@X@XrX7X-X-X4XtXtX-X@X*X=X@X9XZXtX:XXX#XMX+X[.` %X-X-X}.@X;X@X",
"}.:X X-X:X2Xx.q.BXBXnXc.b.w.%X*X@X@X3X8XtXtXiX8X*X=X*X3X3X8X0X3X;X-X*X%Xv.$X].SXOX).6..X%X>X;XqX-X",
"*X:X5X-X7X8X5.HXi.i.3.4.l.( FXiXZX0X2X8XtXtX0X3X3XtXZXqX0XZX0XqX8X2X2X).9.w.cXBXmXu.b.p.FX5X3X7X-X",
"4X=X5XtXqXwX3.`.cX'.].k./ a.+XZXtX0X2X2X*X*X*X2X3X2XtX7X}.tXtXtX4XJXwXp.b.nXw.).u.$XnXu.AX5X5XAX3X",
"4XqXiX0X3XwXw.9.9.g.-.` ^ ` mX6XtXtXyXyX8X2X8XZXZX2X@X3X X*X0X8XeXrXyXp.c.BXSX$X$XnXr.x.5X6XiXqXuX",
"iXZX5XJXyXCXSX6.=._ -.-.s.NXCXuXiXrXCXJXKXrXCXKXLXyX,XrXZX8X,XyXKXZXCX'.f.0.g.j.f._ a.c.eXuXeXiXuX",
"uXKXKXrXuXCXAXVX'.` ` h.NXDXKXiXyXyXLXLXKXrXCXKXJXwXwXCXLXKX2XKXLXLXLXnX` g.%.-.%.:.k.'.ZXKXtXaXJX",
"uXuXZXKXKXuXKXCXPXDXVXDXCXyXaXZXrXyXKXJXeX8XrXCXKXwXuXKXJXKXrXCXLXyXsXPXcXQ =.-.` a.b.DXAXuXuXJXKX",
"JXZXKXKXuXZXaXaXuXaXuXdXuXJXZXyXKXyX8XrXiXZXtX0X0XrXwXJXLXJXeXrX8XyX6XKXDXDXNXnXmXVXJXdXDXaXaXDXKX",
"ZXZXZXZXZXZXZXZXZXZXZXZXZXZXZXCXCXJXyXwXCXKXyXyXJXCXCXrXrXyXyXCXyXyXCXJXJXJXZXJXZXZXZXZXZXZXJXJXZX",
"ZXZXZXZXZXZXZXZXZXZXZXZXZXZXZXCXKXKXCXyXKXKXyXJXKXKXKXyXuXCXCXKXZXCXCXJXJXZXZXZXZXZXZXZXZXZXZXJXZX"
};
