/* XPM */
static char *e55e60e91d5f43aefa0fcb04e44a823fV02GfCg6QfXfsBcd[] = {
/* columns rows colors chars-per-pixel */
"50 50 231 2 ",
"   c #2E0F0A",
".  c #2D1B05",
"X  c #261409",
"o  c #372506",
"O  c #37370B",
"+  c #363610",
"@  c #45210E",
"#  c #592317",
"$  c #513412",
"%  c #7F3403",
"&  c #692A17",
"*  c #65261C",
"=  c #69271A",
"-  c #652A1C",
";  c #6A2B1A",
":  c #772D19",
">  c #6C331C",
",  c #673C1F",
"<  c #6A3D1E",
"1  c #703616",
"2  c #673B20",
"3  c #6C421E",
"4  c #7D4513",
"5  c #48671D",
"6  c #53661E",
"7  c #7D6E1C",
"8  c #655027",
"9  c #4D7128",
"0  c #597A25",
"q  c #6C6E2A",
"w  c #757F27",
"e  c #757D2B",
"r  c #797E2D",
"t  c #757C31",
"y  c #813503",
"u  c #823805",
"i  c #843314",
"p  c #933714",
"a  c #943914",
"s  c #97451B",
"d  c #9A521F",
"f  c #B64707",
"g  c #BC490C",
"h  c #A65918",
"j  c #8C6B07",
"k  c #A17515",
"l  c #A8751D",
"z  c #9A5220",
"x  c #9D5C23",
"c  c #8E6F24",
"v  c #94712A",
"b  c #B37128",
"n  c #C64C07",
"m  c #D65302",
"M  c #DA5402",
"N  c #D95A07",
"B  c #C77006",
"V  c #C96017",
"C  c #DD6E17",
"Z  c #DC6D19",
"A  c #C57F29",
"S  c #C47E2B",
"D  c #D77621",
"F  c #E07C22",
"G  c #6E841E",
"H  c #58962B",
"J  c #4C9935",
"K  c #579938",
"L  c #75832B",
"P  c #6C932D",
"I  c #7A8336",
"U  c #669833",
"Y  c #53A42E",
"T  c #5DA335",
"R  c #57A13A",
"E  c #66A32D",
"W  c #78A62B",
"Q  c #67B42E",
"!  c #68A836",
"~  c #63A23B",
"^  c #65AA3B",
"/  c #6DAD3C",
"(  c #7BA433",
")  c #74AC34",
"_  c #7AAA3A",
"`  c #6CB138",
"'  c #73B234",
"]  c #73B43B",
"[  c #7CB739",
"{  c #73BA3E",
"}  c #7DC63C",
"|  c #599A41",
" . c #7F8F56",
".. c #4CA341",
"X. c #5CA243",
"o. c #69A944",
"O. c #76AC45",
"+. c #6FB244",
"@. c #73B443",
"#. c #7BB543",
"$. c #7DBB44",
"%. c #75B848",
"&. c #71B055",
"*. c #7FC94B",
"=. c #B69015",
"-. c #90912E",
";. c #879E38",
":. c #A58C3C",
">. c #BA9434",
",. c #80A52D",
"<. c #81A634",
"1. c #83AA39",
"2. c #84A939",
"3. c #83BC34",
"4. c #84BD3C",
"5. c #89B938",
"6. c #92BD3B",
"7. c #DF8206",
"8. c #E5911F",
"9. c #C7A30A",
"0. c #C8A30B",
"q. c #D0A40F",
"w. c #CFA311",
"e. c #D0A312",
"r. c #D7A418",
"t. c #EBA907",
"y. c #E3B809",
"u. c #EEBF0D",
"i. c #E9B813",
"p. c #EABD12",
"a. c #EDB218",
"s. c #EDB61A",
"d. c #C38028",
"f. c #C9812A",
"g. c #DD8726",
"h. c #CB9B3D",
"j. c #E38527",
"k. c #E48829",
"l. c #E59621",
"z. c #E6962E",
"x. c #E9972F",
"c. c #E6982E",
"v. c #E9992E",
"b. c #E69631",
"n. c #E89631",
"m. c #E79831",
"M. c #E99931",
"N. c #D7A73A",
"B. c #EAA626",
"V. c #E9A824",
"C. c #E9A229",
"Z. c #EABA37",
"A. c #85C229",
"S. c #85C335",
"D. c #8BC534",
"F. c #8CC935",
"G. c #85C43C",
"H. c #8CC53C",
"J. c #84CB39",
"K. c #8CCA3C",
"L. c #93CB34",
"P. c #96C739",
"I. c #91C53C",
"U. c #92CA3C",
"Y. c #8AD43A",
"T. c #EFC107",
"R. c #EFC20A",
"E. c #F0C20B",
"W. c #F2C709",
"Q. c #EEC312",
"!. c #F1C310",
"~. c #F3CE2B",
"^. c #F4D336",
"/. c #93904B",
"(. c #A68F40",
"). c #85A945",
"_. c #83BD43",
"`. c #8BBE43",
"'. c #86B848",
"]. c #95BA47",
"[. c #82BC54",
"{. c #96B855",
"}. c #A3A962",
"|. c #EDB944",
" X c #84C343",
".X c #8CC543",
"XX c #8DCA43",
"oX c #84C34A",
"OX c #8CC54A",
"+X c #84CB49",
"@X c #8DC949",
"#X c #92C541",
"$X c #9BC646",
"%X c #92CB42",
"&X c #99CB44",
"*X c #93C54B",
"=X c #94CA4A",
"-X c #9ACD4B",
";X c #94D143",
":X c #95D14A",
">X c #9BD24B",
",X c #89C551",
"<X c #98C855",
"1X c #99D353",
"2X c #A2CA57",
"3X c #A8D25A",
"4X c #B5D75E",
"5X c #A8CB69",
"6X c #AAD566",
"7X c #B3D56D",
"8X c #B4DA6B",
"9X c #B1CE70",
"0X c #ABD475",
"qX c #B6D974",
"wX c #D6C655",
"eX c #D6C957",
"rX c #D7CA59",
"tX c #EACF42",
"yX c #F2CB4C",
"uX c #F3D858",
"iX c #F9E753",
"pX c #F9E852",
"aX c #FAE855",
"sX c #C4E77F",
"dX c #F6EC64",
"fX c #FEF464",
"gX c #AFCC83",
"hX c #C9E988",
"jX c #CEED8E",
"kX c #CDF28D",
"lX c #D5E895",
/* pixels */
"D.=X`.I.U.%XXXK.H.%X#X.X4. XH.I.D.%X=XD.%XOXH.I..XXXH.H.XX.X.X.XL.XX X#XXX@X#XK. X4.-X X@X.XG.U.%XH.",
"<XH.U.S.OX/ .XU.K.U.%XG.D.;XK.H.K.%X<X=XK.S.;X=X%X%XH.3..X%XK.U.@.%.U `.F.H.*XF.F.&X@X.XK.XX:X@X%XXX",
"-XD.F./ | ~ G.L.H.-X5.%XU.S.XX X[ S.@XG.S.XXK.XXK.3.&X%X.X.X#XI.{ K @.D.XX X&X%XU.D.D.%X X+X] 4.H.H.",
".X&XXX$.!  X.X.XU.%X@XH.XX_.~ K #.%XK.G.@X@XK.XX:XG.XXH.>X%X X=XD.3.@X=XH.#X=XU.=XG.U.%X/ ~ E OXK.H.",
"F.XX=XH.K.%X@X@XI._.OXK.K..X/ @..X;XG.=X#X5.%X#.@.!  XK.K.U.%XK.%XU.%X`.H.%XXX4.oX=XK.XX$.o.$.XXH.H.",
"F..X=XH.%X%XH.K.U.@X.XF.D.*X.X< * - <.H.2X{.- P H 2 t D.e - - e .X.XD.S.@X' { o.H..XH.H.XXXX%XH.%XXX",
"@X@XXXK.G.1X@X.XL.F.;XF.=XkX5X< 4 k ;.,.{.}.a -.( (.:.<.c a - q 1.{.'.1.1.$.J @.K.H.&XH.D.F.U.-XH.4.",
"%X3.[ +./ @XU.I.OX'.{ @X].9X<X< k W.k - - a M a > dXrX- g m = - - - - - r '.OXU..X%XG.%X%X.X-X#X%X.X",
" XXX| ~ _.@XF.oXX.K %.@X%XA.A.< :.aXN.A = a M a > dXeX* g m = v rXh.A ; t *X%X@XXXOX#X&X X$.%.| H..X",
"&XG._.H.F.#XH.H.~ #.OX#XD.<X7X< :.fX|.b.> a M a < dXwX- g m > (.fX|.b.3 e K.D.@XD.%X#X-X=X) H o.H.H.",
"I.=XK.K.D.%X1XH.=X&XK.H.I.6XqX< :.fX^.E.z.A = wXdXQ.s.b.x > dXuXM.x 3 4. XXXK.K.=X3.6XhX*X4. XXXH.U.",
"-X%XK.@X*X%XH.#XD.S.J. X#.@XI.e (.rXtX^.c.f.* eXfXE.s.n.>.(.uXyXB.x < H..X X#XI.4. X<X3X*X%XH.S.+X{ ",
"$X%X4.#X#XU.U.=X:X$.T K / XXF.XX1.* rXfXm.A # eXfXR.s.b.uXfXm.B.W.k 3 I.F.K.:X_.K.XX.XH..X=X@X) X.| ",
"' %.T H.I.} +X] G.OX+.#.H.U.*XOX1.- eXfXs.Z.rXtX^.R.u.s.Z.|.s.r.k -.2..XJ.] ^ ^ K..XK.F..X4.%X#.W 4.",
"/ R ! <X6X@.J T D.%X X&XL.D..X.X( * eXfXR.^.fX^.E.R.R.E.B.c.u.e.* ( H.OXoX~ K $.%X.X=X:XH.3.K..XXX=X",
"`. XF.9XlX'.o.OXH.G.XX@XOXL 3 , , * w.R.R.R.!.E.E.R.s.z.s.E.z.f.* < < 3 w 3.*XH.H.D.=XOXH.%X.X.X.XG.",
"*XK.K..X XK.&XH.U.lX7X#X<.c a x d p =.q.R.R.R.R.E.s.V.b.s.R.f.b x x x p c ).OXF.XX,X.XI.D.Y.oX=X%X%X",
"5.@XG.qXjXK.} 5.,X6X<X,.- g m n.j.M p & R.T.R.R.E.z.b.b.s.R.& x M.M.x.M g - _ .X3.U.=X&X%X XU.P.%XH.",
" XkX6X*X6X2XqX%XXXS.L v f.g.j.n.z.k.d ; Q.R.R.R.E.c.C.s.V.B.; s Z k.z.j.g.w.-.e H.U.4.] o.o..XI.XXH.",
"@X5X2X} Q 7XlXS.A.$X< x n.b.b.z.v.v.x 1 p.R.E.E.E.c.B.R.B.b.; a M j.z.x.B.E.k 3 4.%XH.T R _.<XS.H.H.",
"U.`.K K ' H.3.5X/.3 m Z b.n.c.R.R.E.u.p.1 x v.z.z.z.A o o o m m M m N b.z.b.s.p.3 r I.oXOXD.L.K.H..X",
"D.J.o.'.#X@XJ.0X/.; Z F n.C.B.E.E.R.R.R.k l d.A A A b % y y m m m m m j.k.n.s.u.> r .XH.U..X.X%.H.H.",
"=X} .XP.D.<X#XG.t - b.b.b.s.R.R.R.T.R.T.E.0.X . . . % M M M m M m m m m Z m.s.R.> I  XK.XXo.T K H.H.",
"#XP.;X X<X<X1.r h g z.C.s.u.R.R.~.iXiXiXR.y.9.9.9.d.f.j.j.j.M m m m m m N Z l.B.e.>.q 2.%X$./  XH..X",
"H.%XH.#X#X=X<.- g M b.B.E.E.R.R.^.fXfXfXQ.R.R.R.R.z.z.b.b.b.M m m m m m m m j.c.u.w.- ].3XI.-XK.H.H.",
".X.XXX:XG..X2.- g M z.B.R.R.R.fXfXfXfXfXfXpXE.R.R.R.s.n.n.n.z.j.m m m m m m j.n.R.w.- gX0X#X.X XH.H.",
"K.XX' #.H OX<.- g M z.B.R.E.R.fXfXfXfXfXfXiXE.R.R.R.i.B.v.n.n.j.M m M g n M j.z.R.e.- ;. XS.&X%XH.H.",
"K.XX{ K / oX1.- g M z.B.R.R.R.fXfXfXfXfXfXiXR.R.R.R.R.T.B.n.z.j.M m m = a M j.z.R.e.- <.XXY.S.G..XH.",
".X@X X[ XXXX1.- g M z.B.R.R.R.^.pXfXfXfX^.~.R.R.R.R.R.R.B.n.b.j.m m m = a M j.b.R.w.- 2.@.%.K @XK.H.",
".X@XH.:XD.%X<.- g M z.B.R.R.R.E.^.fXfXfX!.E.R.R.R.R.E.E.B.n.n.j.m m m = a M j.m.R.w.- <.] K &.S..X.X",
"K.%X=X.X*XXX2.- g m n.B.E.R.R.R.R.E.E.E.R.R.R.R.R.R.s.x.z.n.n.j.M a = * a M j.m.u.w.- _  XG.=XD.XX.X",
"[ XX.X%X>XXX_ t h g z.C.s.u.R.R.R.R.R.R.R.R.R.R.R.R.s.b.n.b.n.j.M a - * a M 8.B.9.=.q U  X%X@XS.XX.X",
"K.K.H.U.G.=X/ K 8 ; b.n.b.s.R.R.R.R.R.R.R.R.R.R.R.R.s.b.n.n.b.j.M a * * p M t.R.o 9 | o.D.U.OX=XH.H.",
"D.H.@XH.*XXX[ / e ; Z F b.C.B.E.R.R.R.R.R.R.R.R.E.B.C.z.n.n.Z V p : = g V j.a.u.o 0 _.U.L.#X*XK.XXXX",
"K..X@X4.@X.XXXXXL 3 m Z b.n.x.E.R.R.R.R.R.R.E.E.E.c.b.z.x.z.m g * * = m C M.s.p.$ 0 *XU.`.'..XXX`  X",
".X%X.X.X%XK.K.K.%X4.< a M j.b.z.B.R.R.R.R.s.z.c.z.b.n.n.Z m ; = * * = b.B.E.j O | / @XG.G.:X' K ! _.",
" XH.H.F.D.H.%X.XD.%X$ i g D j.n.C.s.s.s.s.V.z.x.n.n.z.k.V g = * * i a B.V.t.j + K 4.&XXXK.U.[ ^ _.XX",
"`.4.U.F.K.K.-X@X.X[.O @ * g M b.b.n.n.b.b.b.n.n.M.M.j.M a * * * * g M E.t.M y + @XI.6.-X4.6XkXU.XX%X",
"_ _ @XXX X@X=XH.R K U P @ i a Z Z Z Z Z Z Z Z Z Z x z a : * * i g D j.7.B y G ) .XhX8XH.S.<X9XH..XK.",
"'.( #.$.E _.@XH.^ { -X( O - = m m m m m m m m m m = * * = = = a M g.z.m f O W *X.X9X5XXXJ.H.5.@XXXH.",
"[ [ +.K #. X9XlX} U.$XqX]. .o o @ = = = = = = = = * * * g m m m M u o o 9 3.D.OXS.@X] %.T '..X5.H.H.",
"'.( XXoXK.S.<X3XqX<X7XhXOXU 0 0 6 # # # * : a a a a a a n m f f f 7 5 5 9 OX<X2X4XI.%.K E 8XhX{.H.H.",
"'.1.K.=X@XXX8X*XlX6XS.[.^ ` I.7X#.. . . * a M M M M M M M m   X X _ $.^ *.XX5.4XhXP.G.oX%X<X0XD.H.H.",
"[ _ G.=X=X%XsX7X.XH.oXJ Y 4.].lX3XP O./ $ # y % % % % % % 4 ( 1._ _ XX&XF..XXX' $.@XG.I.=X`.G.S.H.H.",
"'._ XXU.U.F.].*X'.S.2X9XXX*X6.} ].%XK.3.O . . . . . . . . O D.H.H..XD.5.L.O.| R K.@XJ.D.7XkX=X+XH.H.",
"'.).U.D.OXoX_.K.H.G.6XlXU.K.G.Y.%X=XG.:X.X5.=XD.%XK.[ / oXK.;X.XU.=X@XXX@X#.! *.I.H.F.U.<X5X5.#XH.H.",
"6.1.H..Xo.K +.XX#XU.S.,X_.@.=X6.H.1X.XD.U.=X`.:X@.G.F.XXH.F.D.$.P._.@.Q ! H.U.K.I.-X#XG.K.S.%X_ .X.X",
"5.U @XJ.! %.*XD..XXXH.~ Y @.$XXX@X.XH.%XD.K.` X.K  XF.H.*X#XH.@XU. XK R #.U.<XH.=X XJ.K.=X! T ...X.X",
"[ [  XH.%XXX.XH.%X.X.X' '  XXXH.*XH.%XD.%X@X4.) H.H..XG.G..X%X@XH.H.U.H.XXXXXX.X.XH.4..X=X[ ) `..X.X",
"`.4.%XH.XX.X.XH.H.4.XX.X@XOX.XH. X4.%XD..XXX@X XH.H.XXH.H..X%XXXXX.X&XH.XX.X.X@XH.%XXXH.%X@X X@X.X.X"
};
