/* XPM */
static char *_02f33a297b140228a949560909b6fba38Dfrvr1ShMcY7Hy[] = {
/* columns rows colors chars-per-pixel */
"50 50 224 2 ",
"   c #4F9B2F",
".  c #56962B",
"X  c #5B9B2B",
"o  c #51992D",
"O  c #4D9432",
"+  c #4C9B37",
"@  c #549636",
"#  c #539B35",
"$  c #5D9C34",
"%  c #55953A",
"&  c #569D3C",
"*  c #5C9D3D",
"=  c #5A9535",
"-  c #629E34",
";  c #619E3D",
":  c #6D9B38",
">  c #4EA12F",
",  c #58A62C",
"<  c #52A035",
"1  c #5DA335",
"2  c #53A53C",
"3  c #5BA23D",
"4  c #64A32F",
"5  c #6CAB2F",
"6  c #69A32A",
"7  c #72A92A",
"8  c #67B42E",
"9  c #7BB82D",
"0  c #65A534",
"q  c #6AA435",
"w  c #66AC35",
"e  c #6CAB34",
"r  c #63A23B",
"t  c #65AA3B",
"y  c #6DAD3C",
"u  c #6AA33C",
"i  c #73AD35",
"p  c #7BAF35",
"a  c #73AC3C",
"s  c #7CAC3D",
"d  c #7AA532",
"f  c #6BB234",
"g  c #6DB13C",
"h  c #68B438",
"j  c #73B234",
"k  c #7BB536",
"l  c #7EBB34",
"z  c #73B43B",
"x  c #7BB33C",
"c  c #73BA3E",
"v  c #7CBB3D",
"b  c #7CC33C",
"n  c #7EC93B",
"m  c #7DC737",
"M  c #539643",
"N  c #5D9741",
"B  c #559B41",
"V  c #5B9C42",
"C  c #539B4F",
"Z  c #4CA341",
"A  c #5EA344",
"S  c #57A142",
"D  c #63A543",
"F  c #6AA543",
"G  c #67AB42",
"H  c #6CAC44",
"J  c #67A248",
"K  c #71AD42",
"L  c #78AC4A",
"P  c #6FB244",
"I  c #6FB24B",
"U  c #73B443",
"Y  c #7BB543",
"T  c #74BA44",
"R  c #7DBB44",
"E  c #73B349",
"W  c #7BB649",
"Q  c #74BB4A",
"!  c #7CBA49",
"~  c #7CBD54",
"^  c #71B055",
"/  c #7DC142",
"(  c #7FC44C",
")  c #7FC94B",
"_  c #82A939",
"`  c #83BC34",
"'  c #8BBE34",
"]  c #83B53A",
"[  c #84BD3C",
"{  c #8BBD3C",
"}  c #8EB73D",
"|  c #91BE33",
" . c #92BC3F",
".. c #84C52E",
"X. c #8CC52D",
"o. c #88C829",
"O. c #85C026",
"+. c #91CB2B",
"@. c #85C335",
"#. c #8BC534",
"$. c #83CB36",
"%. c #8CC935",
"&. c #85C43C",
"*. c #8CC53C",
"=. c #85CA3C",
"-. c #8CCA3C",
";. c #91C434",
":. c #93CB34",
">. c #91C53C",
",. c #99C53A",
"<. c #92CA3C",
"1. c #9ACA3D",
"2. c #86D13B",
"3. c #8CD33D",
"4. c #8DD837",
"5. c #94D13E",
"6. c #86AF4F",
"7. c #83A841",
"8. c #83B344",
"9. c #83BD43",
"0. c #8BBE43",
"q. c #84BD4B",
"w. c #8BBC4A",
"e. c #87B54E",
"r. c #94BD45",
"t. c #9ABF43",
"y. c #93BC4B",
"u. c #80B958",
"i. c #8EBE50",
"p. c #92BD52",
"a. c #84C343",
"s. c #8CC543",
"d. c #85C943",
"f. c #8DCA43",
"g. c #84C34A",
"h. c #8CC54A",
"j. c #84CB4B",
"k. c #8DC949",
"l. c #8DCA4A",
"z. c #92C541",
"x. c #92C544",
"c. c #9BC545",
"v. c #91CA41",
"b. c #93CD42",
"n. c #91C945",
"m. c #91CD45",
"M. c #92CB43",
"N. c #99CB44",
"B. c #93C54B",
"V. c #9BC64E",
"C. c #95C849",
"Z. c #93CB4B",
"A. c #9ACD4B",
"S. c #8AD141",
"D. c #8CD049",
"F. c #94D143",
"G. c #95D14A",
"H. c #9BD24B",
"J. c #86C352",
"K. c #8CC552",
"L. c #88C850",
"P. c #92C453",
"I. c #9AC453",
"U. c #94CB53",
"Y. c #9CCB53",
"T. c #9AC459",
"R. c #9CCB5B",
"E. c #96CB59",
"W. c #8FD751",
"Q. c #94D351",
"!. c #9CD354",
"~. c #A0D046",
"^. c #A2CC52",
"/. c #A2C65B",
"(. c #A9CF5E",
"). c #A6D354",
"_. c #A9D25D",
"`. c #A8D85D",
"'. c #B5D75E",
"]. c #9DCE63",
"[. c #A3CB62",
"{. c #AACE65",
"}. c #ACCE6E",
"|. c #A4C567",
" X c #B5CD6B",
".X c #B1CE64",
"XX c #A6D261",
"oX c #ABD563",
"OX c #AADA64",
"+X c #A5D36A",
"@X c #ABD46C",
"#X c #ABDB6B",
"$X c #B3D56D",
"%X c #B4DC6E",
"&X c #B5D665",
"*X c #ABCD72",
"=X c #B4CF72",
"-X c #ABD373",
";X c #ADDB72",
":X c #A9D17B",
">X c #B4DC73",
",X c #B9DA71",
"<X c #B5D675",
"1X c #AFE16E",
"2X c #C4E77F",
"3X c #BCE481",
"4X c #C2EC85",
"5X c #CBEB83",
"6X c #CCE48D",
"7X c #C4EC8C",
"8X c #C9E98C",
"9X c #D3E58D",
"0X c #D4EC8D",
"qX c #D9E68E",
"wX c #C6F486",
"eX c #CDF28D",
"rX c #D0F189",
"tX c #CEEC92",
"yX c #C5E991",
"uX c #D3EB93",
"iX c #D7E597",
"pX c #CCF694",
"aX c #C8F29C",
"sX c #CBEAA4",
/* pixels */
"#.C.0.>.<.M.f.-.*.v.z.s.[ a.*.>.#.v.Z.#.b.h.*.>.s.f.*.*.f.s.s.s.:.f.a.z.f.k.z.-.a.[ A.a.l.s.&.<.v.*.",
"E.*.5.@.h.a s.<.-.<.M.&.#.F.-.*.-.M.U.Z.-.@.F.Z.M.M.*.` s.v.-.<.U Q - 0.%.*.B.%.%.N.k.s.-.f.G.k.m.f.",
"V.#.%.g V r &.:.*.A.{ v.<.@.f.a.x @.l.&.@.f.-.f.-.` N.M.s.s.z.>.c @ U #.f.a.N.M.<.#.#.m.a.d.z [ *.*.",
"s.N.f.R 0 a.s.s.<.M.k.*.f.9.r @ Y b.-.&.k.k.-.f.G.&.f.*.H.M.a.Z.#.` k.C.*.z.C.<.Z.&.<.m.y r 4 h.-.*.",
"%.f.Z.*.-.v.k.l.>.9.h.-.-.s.y U s.F.&.Z.z.' b.Y E 0 a.-.-.<.b.-.v.<.v.0.*.b.f.[ g.Z.-.f.R H R f.*.*.",
"%.s.C.*.M.M.*.-.<.k.s.%.#.B.s.-.B.-.-.*.^.#XB.i . y l.#.-.-.&.s.s.s.#.@.l.j c D *.s.*.*.f.f.m.*.M.f.",
"k.k.f.-.&.!.k.s.+.%.F.%.C.eX+X*.B.-.F.#.oX7XB.@.a.f.m.*.*.f.h.9.k.`.!.f.*.R O E -.*.N.*.#.%.<.A.*.[ ",
"M.` v P y k.<.>.h.q.c l.y.}.R.o.*.@.R f.x.p.s.f.-.v.*.s.C.z.*.b.>.tX-X*.,.w.h.<.s.m.&.v.M.s.A.z.M.s.",
"a.f.N r 9.k.%.g.A # T l.M.O.o.@.2 M Y #.Z.9.-.f.B.#.a.&.-.[ *.Z.*.s.<.;.B.B.v.k.f.h.z.N.a.R Q B *.s.",
"N.&.9.*.%.z.*.*.u Y h.z.;.I.>XB.f v w.P.s.v.&.s.<.@.k.>.E.;XN.` W.e a.f.s.-.#.k.#.b.z.A.Z.i . H *.*.",
">.Z.-.-.#.v.!.*.Z.N.-.*.>.@X3Xx.f.X.OXpX>.;.C.C.*.Z.<.;._.4XB.j # 1 g.&.a.f.-.-.C.` oX4XB.[ a.f.*.<.",
"A.v.-.k.B.v.*.z.#.@.=.a.W k.<.*.B.;.A.XX>.<.B.v.s.[ b.*.i.w.v.v F q.N.*.s.a.z.>.[ a.R._.B.M.*.@.j.c ",
"c.b.[ x.z.<.<.C.G.R 1 = y f.%.f.h.C.s.a.l.q.j -.:.F.f ~ * a.%.M.M.>.M.<.%.-.G.9.-.f.s.*.s.Z.l.i A B ",
"j T 1 *.>.b j.z &.h.K Y *.<.B.h.F.s.f.s.$ = j F.#.m.f O g -.*.x.Z.#.N.s.=.z t t -.s.-.%.s.[ m.Y 7 [ ",
"g < w U.OXU + 1 #.v.a.N.:.#.s.s.#.-.b.a.y W a.f.A.a.a.a.@.` -XXXK.&.*.h.g.r $ R M.s.Z.G.*.` -.s.f.Z.",
"0.a.%. XiX8.F h.*.&.f.k.h.v.%.v B.*.<.s.l.f.-.>.M.M.f.z.:.r.sX_.#.:.>.B.#.` B.*.*.#.Z.h.*.M.s.s.s.&.",
"B.-.-.s.a.-.N.*.<.uX$XN.>.f.k.>.-.-.@.f.s.[ s.v.<.*.f.-.Z.h.a.#.-.R k Z.k.B.Z.%.f.L.s.>.#.2.g.Z.m.v.",
"' k.&.<X0X-.b { K.@XY.#.<.a.U :.>.z.N.z.s.k.s.#.*.-.F.s.k.v.-.&.A & z f.-.#.a.s.` <.B.N.M.a.<.,.v.*.",
"a.pXoXB.XX/.<Xb.f.@.$.a.! r G 1.B.s.A.z.z.C.*.f.s.&.a.R a.*.-.k.e h =.s.B.-.Z.*.*.<.[ z G H s.>.f.*.",
"k.|./.b 8 $XiX@...~.*.) o W h.T w f l.f.*.*.` M.s.q $ i M.Z.k.k.>.G.z.$XeX@.@.:.&.M.*.1 3 9.U.@.*.*.",
"<.0.= # j *.` [.,XZ.&.f.[ %.-.= 1 z l.f.*.*.*.*.a.i K 9.G.M.s.M.0.Z.*.I.{.B.1XT.G.x.>.g.h.;.:.-.*.s.",
"#.$.G 8.z.l.$.;X6Xf.l.z.N.&.s.g.@X(.C.*.*.f.M.f.s.f.G.k.*.X.#.f.S.@.%.&.] B.7X-X*.N.s.*.<.s.s.T *.*.",
"Z.n s.1.#.P.z.&.g.a.Y d.f.uX.Xn 5XoX{ ' #.*.s.f.z.*.%.` &.<.<.&.v OXH.=.f.>.{ #.oX!.a.-.f.H 1 & *.*.",
"z.1.F.a.Y.Y.*.N.i Z + #.' *XI.#.I.h.s.=.f.f.s.z.A.s.s.*.M.h.h.f.y.9X(.a.d.C.B.=.qX*X` #.v.R y a.*.s.",
"*.v.*.z.z.C.*.*.9.5 q.R.OX@.$.B.f.s.R.oXx.>.m.-.d.a.v.%.#.Z.f.#.c.+XE.@.f.x 9.s.{ h.C.).).>.A.-.*.*.",
"s.s.f.G.&.s.M.M.f.S.M.{.5XR.&.l -.#.>X7Xs.f.x a.-.H.' M.a.E H w h.wX%Xe <   ;XqX-.<.z.aX:Xx.s.a.*.*.",
"-.f.j Y X h.*.%.*.@.f.s.x.s.Y.<X*.X.s.P.x U . l.>.M.C.[ g.r = ~ F.` &.! I ( B.*X/ j B.w.a.@.N.M.*.*.",
"-.f.c $ y g.f.#.0.A.&.*.-.#.`.8Xl.a.#.G.K $ g.&.a.s.Z.&.&.[ Z.&.*.F...s.B.z.@.1 B Y <.*.f.4.@.&.s.*.",
"s.k.a.l f.f.s.B.s.#.>.B.k.B.&.a.g.W m...a.a.*.Z.f.f.l *.v.N.@.b.L.x A.>.s.-.d.w Y 9.>.N.U Q $ l.-.*.",
"s.k.*.G.#.v.*.z.f.;.%.f.b &.l.0 . z f.-.-.-.*.>.;.#.*.k.h.h.5 y 0 K Z.#.-.&.B.V.%.Z.*.-.z % ^ @.s.s.",
"-.v.Z.s.B.f.v.-.s.M.f.m 2.5.0.L ! s.<.<.a.Z.M.-.m.b.[ #XwXB.R P s.h.=.3.@.>.N.N.<.f.F.d.a.&.Z.#.f.s.",
"l f.s.M.H.f.[ Z.h &.z.f.k.>.M.d.%.B.B.A.w.a.-.9.U w e ]._.| <.a.#.M.*.>.B.z.@.d.-.Y E 0 a.b.k.@.f.s.",
"-.-.*.<.&.Z.y * N l.-.a.-.-.v.*.*.B.C.*.*.k.s.-.2 J b.@.#XY.Z.%X*.f.=.T t 0 U.>.l.P M H #.<.h.B.*.*.",
"#.*.k.*.B.f.v g *.*.<.N.h.*.N.A.M.` -.<.-.s.Z.M.*.E.:.,.0X-X-XiX0.#.f.$ ; g.&.B.X.s.9.<.:.z.B.-.f.f.",
"-.s.k.[ k.s.f.f.-.f.R W - a.*.s.@.@.f.g.j a.*.*.>.9X,X[ 9.l.j q.>.M.k.9.h.s.-.H.:.s.B.<.0.w.s.f.f a.",
"s.M.s.s.v.-.-.-.b.&.H @ g d.f.-.-.f.z ; ; h.*.>.Z.+Xs.S.y & , #.<.s.A.N.%.-.&.i D a k.&.&.G.j & w 9.",
"a.*.*.%.#.*.v.s.#.F.h.9.f.#.s.N.Z.s.9.e 9.#.-.B.*.Y.`.-.Y F g.z.h.#.&.s.[ -.g.* & [ N.f.-.<.x t 9.f.",
"0.[ <.%.-.-.A.k.s.J.j -.@.N.>.C.<.&.A.l.b.#.-.f.s. X8Xh.%.v.-.*.f.-.` h.l.f.f.! D.>. .A.[ +XeX<.f.M.",
"s p l.f.a.k.Z.*.3 % z b.Z.Z.s.s.:.*.a.s.#.m.a./ z l.v ` >.f.f.t.&.-.F.@.#.m.9 -.s.5X&X*.@.T.}.*.s.-.",
"8.d Y R 4 9.k.*.t c A.>.' oX[.>.a.U.Z.*.<.9.r V g N.C.-.<.&.@.a.e.M.#.-.M.-.#.B.s.}.|.f.=.*.' l.f.*.",
"k x P % Y a.=XuXn <.c.,Xr.tX*X*.B.-.5.*.Z.a.e W &.B.B.<.X.a.A C P f.` Z.L @.#.h.@.k.z T 1 q.s.{ *.*.",
"6.d f.g.-.@.I._.,XP.$X6Xh.a.*.b b Y 0 e k.C.M.-.-.b.` *.M.l.5 c k.-.j $ 1 h.P.^.'.>.Q # 6 %XyXp.*.*.",
"8._ -.Z.k.f.%XB.9XOX@.u.t f >.$XQ.. r g.f.*.<.1.*.@.-.f.A.k.*.<.;.l.R t ) f.' '.8X1.&.g.M.P.-X;.*.*.",
"l p &.Z.C.v.2X$Xs.*.g.+ , [ t.iXOXk U.j.f.-.` l.B.f.a.L.z h.z.N.5.Y f.N.%.s.f.j R k.&.>.C.0.&.@.*.*.",
"q.s f.<.<.%.r.B.q.@.^.*Xf.B. .n r.M.-.@.s.*.Z.h.<.v.e * r a.#.*.*.s.#.{ :.L V < -.l.$.#.$XrXC.j.*.*.",
"e.7.<.#.h.g.9.-.*.&.oXuX<.-.&.3.v.Z.&.G.s.] C.#.v.-.v y g.-.F.s.<.Z.l.f.k.W 0 ) >.*.%.<.R.{.{ z.*.*.",
"} _ *.s.J @ K f.z.<.@.J.9.U Z.| *.Q.s.#.<.C.0.G.U &.%.f.*.%.#.R ,.9.U 8 e *.<.-.>.A.z.&.-.@.M.s s.s.",
"] : l.=.w T B.#.s.f.*.r > U c.f.k.s.*.v.#.-.f S * a.%.*.B.z.*.k.<.a.& 3 W <.Y.*.C.a.$.-.B.q 1 Z s.s.",
"x k a.*.M.f.s.*.v.s.s.j j a.f.*.B.*.v.#.M.k.[ i *.*.s.&.&.s.M.k.*.*.<.*.f.f.f.s.s.*.[ s.Z.k i 0.s.s.",
"0.[ v.*.f.s.s.*.*.[ f.s.l.h.s.*.a.[ v.#.s.f.k.a.*.*.f.*.*.s.M.f.f.s.N.*.f.s.s.k.*.m.f.*.m.k.a.l.s.s."
};
